HIERARCHY
ROOT Hips
{
	OFFSET 0.000000 97.420761 0.000000
	CHANNELS 6 Xposition Yposition Zposition Xrotation Yrotation Zrotation
	JOINT RightUpLeg
	{
		OFFSET -8.571318 0.002251 -0.000250
		CHANNELS 6 Xposition Yposition Zposition Xrotation Yrotation Zrotation
		JOINT RightLeg
		{
			OFFSET 0.000000 -44.326080 -0.000105
			CHANNELS 6 Xposition Yposition Zposition Xrotation Yrotation Zrotation
			JOINT RightFoot
			{
				OFFSET 0.000000 -43.324329 -0.000176
				CHANNELS 6 Xposition Yposition Zposition Xrotation Yrotation Zrotation
				JOINT RightToeBase
				{
					OFFSET 0.000000 -7.938133 18.050686
					CHANNELS 6 Xposition Yposition Zposition Xrotation Yrotation Zrotation
					End Site
					{
						OFFSET 0.000000 0.000000 19.719055
					}
				}
			}
		}
	}
	JOINT LeftUpLeg
	{
		OFFSET 8.571318 -0.000084 0.000009
		CHANNELS 6 Xposition Yposition Zposition Xrotation Yrotation Zrotation
		JOINT LeftLeg
		{
			OFFSET 0.000000 -44.326080 -0.000105
			CHANNELS 6 Xposition Yposition Zposition Xrotation Yrotation Zrotation
			JOINT LeftFoot
			{
				OFFSET 0.000000 -43.324329 -0.000176
				CHANNELS 6 Xposition Yposition Zposition Xrotation Yrotation Zrotation
				JOINT LeftToeBase
				{
					OFFSET 0.000000 -7.938133 18.050686
					CHANNELS 6 Xposition Yposition Zposition Xrotation Yrotation Zrotation
					End Site
					{
						OFFSET 0.000000 0.000000 19.719055
					}
				}
			}
		}
	}
	JOINT Spine
	{
		OFFSET 0.000000 10.422829 -1.158092
		CHANNELS 6 Xposition Yposition Zposition Xrotation Yrotation Zrotation
		JOINT Spine1
		{
			OFFSET 0.000000 11.587624 0.000000
			CHANNELS 3 Xrotation Yrotation Zrotation
			JOINT Spine2
			{
				OFFSET 0.000000 10.579559 -0.000443
				CHANNELS 6 Xposition Yposition Zposition Xrotation Yrotation Zrotation
				JOINT Spine3
				{
					OFFSET 0.000000 10.567749 -0.000444
					CHANNELS 6 Xposition Yposition Zposition Xrotation Yrotation Zrotation
					JOINT LeftShoulder
					{
						OFFSET 3.218383 8.290512 0.000000
						CHANNELS 6 Xposition Yposition Zposition Xrotation Yrotation Zrotation
						JOINT LeftArm
						{
							OFFSET 15.038529 0.000000 0.000000
							CHANNELS 3 Xrotation Yrotation Zrotation
							JOINT LeftForeArm
							{
								OFFSET 32.129166 0.000000 0.000000
								CHANNELS 3 Xrotation Yrotation Zrotation
								JOINT LeftHand
								{
									OFFSET 26.275406 0.000000 0.000000
									CHANNELS 3 Xrotation Yrotation Zrotation
									End Site
									{
										OFFSET 26.275406 0.000000 0.000000
									}
								}
							}
						}
					}
					JOINT RightShoulder
					{
						OFFSET -3.218383 8.290512 0.000000
						CHANNELS 6 Xposition Yposition Zposition Xrotation Yrotation Zrotation
						JOINT RightArm
						{
							OFFSET -15.038529 0.000000 0.000000
							CHANNELS 3 Xrotation Yrotation Zrotation
							JOINT RightForeArm
							{
								OFFSET -32.129166 0.000000 0.000000
								CHANNELS 3 Xrotation Yrotation Zrotation
								JOINT RightHand
								{
									OFFSET -26.275406 0.000000 0.000000
									CHANNELS 3 Xrotation Yrotation Zrotation
									End Site
									{
										OFFSET -26.275406 0.000000 0.000000
									}
								}
							}
						}
					}
					JOINT Neck
					{
						OFFSET 0.000000 14.789474 0.000000
						CHANNELS 6 Xposition Yposition Zposition Xrotation Yrotation Zrotation
						JOINT Head
						{
							OFFSET 0.000000 9.838806 0.000953
							CHANNELS 6 Xposition Yposition Zposition Xrotation Yrotation Zrotation
							End Site
							{
								OFFSET 0.000000 9.838806 0.000000
							}
						}
					}
				}
			}
		}
	}
}
MOTION
Frames: 4
Frame Time: 0.016667
-5.300694 63.493919 -66.430099 -8.385556 -0.873466 1.729799 -8.571318 0.002250 -0.000245 -64.262559 -1.606819 0.907206 0.000001 -44.326088 -0.000104 88.358025 -0.119534 0.121733 0.000000 -43.324326 -0.000175 -16.880659 -4.643699 1.787094 -0.000000 -7.938131 18.050682 -0.000000 -0.000000 -0.000000 8.571316 -0.000083 0.000008 -64.971894 -5.942686 11.670311 -0.000002 -44.326092 -0.000106 93.222295 -0.763891 -1.557719 -0.000001 -43.324329 -0.000172 -11.540942 -3.966477 -14.377161 0.000001 -7.938132 18.050686 -6.346684 -0.273770 5.736047 -0.000000 10.422825 -1.158092 9.946880 -0.363945 -0.473625 -1.405131 -0.128631 -0.232530 0.000000 10.579546 -0.000434 4.415301 -0.128607 -0.232544 -0.000001 10.567748 -0.000443 9.148195 -0.112107 -0.164810 3.218382 8.290526 -0.000005 3.745615 -4.915182 -7.205935 -9.501208 3.223325 -71.842969 57.105108 -67.960847 32.743046 2.911140 -7.119081 2.427275 -3.218382 8.290531 -0.000004 -0.466721 3.659973 7.673018 -14.440512 9.284799 72.285859 67.241880 59.715053 -42.485279 2.602887 -2.681218 -5.378965 -0.000000 14.789474 -0.000007 5.750984 2.651111 -0.473817 0.000000 9.838820 0.000954 -25.395466 4.971633 0.473909 
-5.295399 63.496155 -66.431412 -8.402693 -0.877670 1.681976 -8.571318 0.002249 -0.000246 -64.299954 -1.621752 0.945755 0.000000 -44.326084 -0.000108 88.436798 -0.125584 0.138948 -0.000000 -43.324333 -0.000174 -17.009097 -4.673257 1.669574 -0.000000 -7.938131 18.050682 -0.000000 -0.000000 -0.000000 8.571320 -0.000084 0.000018 -64.979080 -5.886178 11.724902 -0.000002 -44.326084 -0.000109 93.234609 -0.747992 -1.488737 -0.000003 -43.324326 -0.000173 -11.556565 -4.054018 -14.397877 0.000000 -7.938134 18.050680 -6.309549 -0.272768 5.785450 0.000001 10.422828 -1.158086 9.954325 -0.402922 -0.460619 -1.401804 -0.146633 -0.229405 0.000001 10.579553 -0.000428 4.418628 -0.146609 -0.229420 0.000001 10.567767 -0.000450 9.150697 -0.125335 -0.161235 3.218382 8.290513 -0.000006 3.670025 -4.960338 -7.220417 -9.370340 3.385440 -71.793976 56.499793 -68.172350 32.238571 2.879089 -7.273530 2.447652 -3.218383 8.290510 -0.000005 -0.587620 3.670873 7.709345 -14.409739 9.265578 72.270266 66.790084 59.825033 -41.984425 2.653823 -2.461186 -5.494131 0.000000 14.789470 -0.000009 5.727390 2.678174 -0.467657 -0.000000 9.838827 0.000936 -25.440651 5.016768 0.499352 
-5.292200 63.494324 -66.432243 -8.423531 -0.894522 1.643419 -8.571318 0.002250 -0.000241 -64.349118 -1.639670 0.985250 0.000001 -44.326080 -0.000101 88.523254 -0.163194 0.121796 -0.000001 -43.324329 -0.000176 -17.039818 -4.604325 1.652098 0.000000 -7.938132 18.050692 0.000000 0.000000 0.000000 8.571317 -0.000084 0.000014 -64.970645 -5.892102 11.793762 -0.000001 -44.326080 -0.000097 93.252743 -0.760800 -1.495207 -0.000001 -43.324329 -0.000174 -11.568404 -4.125815 -14.419685 0.000000 -7.938133 18.050688 -6.271932 -0.271548 5.839427 0.000000 10.422828 -1.158094 9.964351 -0.443358 -0.457440 -1.397321 -0.164621 -0.230702 -0.000000 10.579566 -0.000442 4.423112 -0.164597 -0.230719 -0.000000 10.567743 -0.000438 9.154067 -0.138858 -0.160965 3.218382 8.290490 -0.000001 3.617783 -5.003107 -7.235365 -9.257690 3.516055 -71.722498 55.930572 -68.333235 31.751111 2.836232 -7.534751 2.611225 -3.218383 8.290511 -0.000002 -0.680055 3.643491 7.737186 -14.494683 9.182917 72.273940 66.366530 59.931106 -41.347377 2.722816 -2.234399 -5.623225 -0.000001 14.789456 -0.000004 5.697332 2.722224 -0.465491 0.000000 9.838812 0.000958 -25.498457 5.094185 0.526428 
-5.290271 63.490318 -66.432816 -8.447769 -0.920063 1.609680 -8.571317 0.002250 -0.000238 -64.405761 -1.660203 1.024849 0.000002 -44.326073 -0.000113 88.618153 -0.213028 0.086992 -0.000001 -43.324333 -0.000180 -17.015973 -4.480214 1.687880 0.000000 -7.938133 18.050688 -0.000000 0.000000 -0.000000 8.571316 -0.000083 0.000015 -64.952456 -5.929101 11.871673 -0.000001 -44.326080 -0.000107 93.274231 -0.789717 -1.540154 0.000001 -43.324322 -0.000171 -11.577205 -4.183662 -14.442167 0.000001 -7.938133 18.050686 -6.234989 -0.270217 5.895431 0.000000 10.422827 -1.158086 9.976240 -0.484599 -0.459364 -1.392007 -0.182621 -0.234301 -0.000001 10.579567 -0.000453 4.428427 -0.182597 -0.234320 0.000000 10.567761 -0.000442 9.158065 -0.152550 -0.162415 3.218384 8.290510 0.000001 3.585918 -5.044551 -7.251614 -9.161188 3.631110 -71.635345 55.466416 -68.464368 31.357679 2.794245 -7.803734 2.829319 -3.218383 8.290510 -0.000000 -0.761363 3.596646 7.763935 -14.645785 9.048471 72.278865 65.968098 60.045416 -40.632867 2.801432 -2.031058 -5.727564 0.000001 14.789482 0.000004 5.663208 2.778422 -0.466593 -0.000001 9.838809 0.000961 -25.564283 5.194884 0.553949 
